<?xml version="1.0" standalone="no"?>
<!DOCTYPE svg PUBLIC "-//W3C//DTD SVG 20010904//EN"
 "http://www.w3.org/TR/2001/REC-SVG-20010904/DTD/svg10.dtd">
<svg version="1.0" xmlns="http://www.w3.org/2000/svg"
 width="700.000000pt" height="700.000000pt" viewBox="0 0 700.000000 700.000000"
 preserveAspectRatio="xMidYMid meet">
<metadata>
Created by potrace 1.14, written by Peter Selinger 2001-2017
</metadata>
<g transform="translate(0.000000,700.000000) scale(0.100000,-0.100000)"
fill="#000000" stroke="none">
<path d="M3278 6996 c-1 -2 -42 -6 -89 -10 -47 -4 -95 -8 -105 -10 -10 -2 -48
-7 -84 -12 -36 -4 -67 -8 -70 -9 -3 -1 -25 -5 -50 -9 -25 -4 -101 -21 -170
-38 -69 -16 -134 -31 -146 -34 -39 -7 -228 -72 -346 -117 -141 -55 -364 -163
-471 -229 -43 -26 -81 -48 -83 -48 -5 0 -205 -134 -234 -157 -8 -6 -51 -40
-95 -74 -353 -275 -673 -651 -897 -1054 -49 -87 -148 -289 -148 -301 0 -2 -9
-23 -20 -47 -57 -123 -157 -435 -186 -582 -2 -11 -10 -54 -19 -95 -29 -147
-35 -194 -52 -370 -15 -163 -8 -592 12 -711 2 -13 6 -46 9 -74 9 -78 23 -156
51 -285 71 -332 241 -752 415 -1033 30 -48 60 -95 65 -105 25 -44 135 -194
212 -289 167 -206 340 -378 553 -548 92 -74 370 -265 386 -265 4 0 15 -6 23
-14 9 -7 81 -47 161 -88 354 -181 736 -303 1109 -354 25 -3 57 -8 71 -10 163
-25 682 -25 842 1 13 2 46 7 73 10 74 11 87 13 120 19 17 4 46 9 65 12 51 8
213 48 300 74 253 74 522 187 734 309 49 28 91 51 93 51 9 0 267 179 343 239
157 122 333 287 460 430 36 41 70 79 76 85 65 68 263 353 352 508 47 80 182
351 182 364 0 3 8 24 19 47 53 118 147 417 177 562 17 81 54 301 59 350 4 33
9 71 11 85 9 47 11 525 3 605 -15 165 -21 220 -24 225 -2 3 -6 30 -10 60 -9
75 -69 337 -99 435 -189 622 -521 1151 -997 1590 -347 320 -788 580 -1244 733
-168 57 -420 119 -555 137 -19 3 -46 7 -60 10 -13 2 -52 7 -86 11 -33 3 -74 8
-90 10 -32 5 -540 14 -546 10z m2420 -3680 c221 -45 382 -225 382 -427 0 -115
-92 -432 -184 -635 -140 -308 -307 -548 -550 -790 -294 -292 -610 -488 -1006
-625 -63 -22 -135 -45 -160 -50 -25 -6 -52 -12 -60 -14 -231 -55 -368 -70
-625 -70 -160 0 -288 7 -351 19 -12 2 -45 7 -75 11 -30 4 -57 9 -60 11 -3 2
-21 6 -40 9 -115 20 -337 89 -484 150 -99 40 -311 149 -336 171 -8 8 -19 14
-23 14 -17 0 -248 166 -331 239 -77 68 -281 277 -336 346 -238 295 -402 623
-500 995 -64 242 -47 363 70 493 80 88 180 141 296 154 28 3 51 6 52 7 6 5
4295 -2 4321 -8z"/>
</g>
</svg>
